<?xml version="1.0" standalone="no"?>
<!DOCTYPE svg PUBLIC "-//W3C//DTD SVG 20010904//EN"
 "http://www.w3.org/TR/2001/REC-SVG-20010904/DTD/svg10.dtd">
<svg version="1.0" xmlns="http://www.w3.org/2000/svg"
 width="400.000000pt" height="400.000000pt" viewBox="0 0 400.000000 400.000000"
 preserveAspectRatio="xMidYMid meet">
<metadata>
Created by potrace 1.14, written by Peter Selinger 2001-2017
</metadata>
<g transform="translate(0.000000,400.000000) scale(0.100000,-0.100000)"
fill="#000000" stroke="none">
<path d="M1874 3992 c-21 -14 -22 -40 -4 -106 l17 -66 -26 -1 c-14 0 -33 -2
-41 -3 -8 -2 -45 -6 -81 -10 -212 -20 -387 -73 -424 -130 -10 -14 -16 -51 -17
-99 -2 -66 0 -78 17 -91 17 -13 114 -15 726 -16 830 0 760 -11 752 112 -7 106
-24 125 -152 169 -83 29 -293 63 -418 68 l-22 1 20 67 c17 60 17 69 4 90 -15
22 -19 23 -178 23 -89 0 -167 -4 -173 -8z"/>
<path d="M610 3858 c-53 -20 -53 -62 0 -123 109 -126 105 -194 -15 -330 -57
-65 -114 -154 -126 -198 -24 -90 14 -212 94 -303 43 -49 75 -56 107 -24 27 27
25 46 -9 89 -43 54 -70 107 -77 150 -9 54 18 108 104 211 92 110 115 157 118
240 3 54 -2 75 -26 126 -29 60 -97 147 -129 163 -9 5 -27 5 -41 -1z"/>
<path d="M884 3857 c-46 -25 -45 -62 5 -118 49 -56 81 -119 81 -160 0 -42 -31
-104 -75 -153 -154 -166 -187 -285 -118 -421 41 -80 98 -145 127 -145 61 0 81
56 38 109 -112 142 -107 201 26 361 97 117 117 158 117 245 0 84 -31 156 -100
233 -48 54 -72 65 -101 49z"/>
<path d="M1438 3410 c-158 -7 -149 5 -163 -205 -3 -49 -8 -110 -10 -135 -7
-74 -14 -179 -20 -275 -3 -49 -7 -106 -10 -125 -2 -19 -7 -84 -10 -145 -4 -60
-8 -126 -10 -145 -2 -19 -6 -78 -10 -130 -7 -115 -11 -150 -16 -154 -2 -2 -42
84 -88 192 -136 316 -139 321 -173 342 -26 16 -49 18 -162 17 -72 -1 -137 -6
-144 -10 -17 -12 -15 -48 7 -109 18 -49 77 -216 201 -573 26 -77 102 -291 167
-475 116 -329 118 -337 117 -420 0 -93 -10 -253 -29 -475 -15 -175 -15 -250 0
-270 16 -20 28 -20 948 -21 589 0 939 3 952 9 11 6 23 15 28 21 6 9 3 132 -8
256 -1 19 -5 80 -9 135 -4 55 -9 120 -11 145 -2 25 -7 90 -10 145 -3 55 -8
120 -10 145 -3 25 -7 82 -10 127 -7 96 -17 88 130 98 55 4 115 8 133 9 17 2
32 2 32 0 0 -19 -86 -211 -110 -244 -55 -77 -2 -179 87 -167 38 5 74 47 120
138 70 140 146 368 159 484 4 28 8 53 10 56 18 31 26 401 12 534 -5 39 -17
113 -29 165 -11 52 -22 103 -24 113 -7 29 -65 196 -92 262 -74 178 -234 449
-283 478 -39 23 -90 14 -122 -22 -34 -38 -35 -64 -5 -112 102 -168 147 -244
147 -251 0 -4 -15 -9 -32 -9 -37 -2 -74 -4 -170 -13 -38 -3 -69 -3 -70 2 -2
11 -5 50 -12 142 -4 47 -9 108 -11 135 -3 28 -7 91 -10 140 -11 177 -20 195
-104 195 -824 4 -1178 4 -1273 0z m1772 -781 c23 -42 80 -232 99 -327 44 -222
46 -448 5 -661 -7 -41 -17 -78 -21 -82 -8 -6 -61 -12 -260 -25 -108 -7 -99
-18 -108 140 -3 59 -8 127 -10 150 -2 22 -7 86 -10 141 -4 55 -8 123 -10 150
-2 28 -7 88 -10 135 -4 47 -8 101 -10 120 -2 19 -6 86 -10 148 l-7 112 34 1
c40 0 162 10 165 13 1 1 33 3 72 4 63 3 71 1 81 -19z"/>
<path d="M1113 232 c-36 -5 -49 -40 -48 -121 1 -123 -105 -111 980 -111 1080
0 976 -11 979 106 3 86 -1 102 -28 116 -16 9 -253 12 -941 13 -506 0 -930 -1
-942 -3z"/>
</g>
</svg>
